# xmcd
#
# Track frame offsets: 
#        150
#        18077
#        38262
#        56054
#        78061
#        99033
#        111350
#        131745
#        150625
#        178062
#        193237
#        213744
#        231229
#        258299
#        280464
#        299209
#        318434
#
# Disc length: 4490 seconds
#
# Revision: 0
# Processed by: cddbd v1.5.2PL0 Copyright (c) Steve Scherf et al.
# Submitted via: ExactAudioCopy v1.0b3
#
DISCID=f3118811
DTITLE=Beth Hart - 37 Days
DYEAR=2007
DGENRE=Blues
TTITLE0=Good As It Gets
TTITLE1=Jealousy
TTITLE2=Beautiful Child
TTITLE3=One Eyed Chicken
TTITLE4=Sick
TTITLE5=Face Forward
TTITLE6=Soul Shine
TTITLE7=Forever Young
TTITLE8=Easy
TTITLE9=Heaven Look Down
TTITLE10=Missing You
TTITLE11=Waterfalls
TTITLE12=Crashing Down
TTITLE13=At The Bottom
TTITLE14=L.A. Song
TTITLE15=Learning To Live
TTITLE16=Leave The Light On
EXTD=
EXTT0=
EXTT1=
EXTT2=
EXTT3=
EXTT4=
EXTT5=
EXTT6=
EXTT7=
EXTT8=
EXTT9=
EXTT10=
EXTT11=
EXTT12=
EXTT13=
EXTT14=
EXTT15=
EXTT16=
PLAYORDER=
